# xmcd CD database file
#
# Track frame offsets:
#	150
#	82569
#	170690
#	258535
#
# Disc length: 4751 seconds
#
# Revision: 0
# Processed by: cddbd v1.5.2PL0 Copyright (c) Steve Scherf et al.
# Submitted via: CDex 1.51
#
DISCID=26128d04
DTITLE=Dexter Gordon - Wardell Grey - Elks' Auditorium Concert 6 July 1947
DYEAR=1947
DGENRE=Jazz
TTITLE0=The hunt (Rocks and shoals)
TTITLE1=Bopera (Disorder at the border
TTITLE2=Bopland (Byas-a-drink)
TTITLE3=Jeronimo (Cherokee)
EXTD=YEAR: 1947
EXTT0=
EXTT1=
EXTT2=
EXTT3=
PLAYORDER=
